<?xml version="1.0" standalone="no"?>
<!DOCTYPE svg PUBLIC "-//W3C//DTD SVG 20010904//EN"
 "http://www.w3.org/TR/2001/REC-SVG-20010904/DTD/svg10.dtd">
<svg version="1.0" xmlns="http://www.w3.org/2000/svg"
 width="512.000000pt" height="512.000000pt" viewBox="0 0 512.000000 512.000000"
 preserveAspectRatio="xMidYMid meet">
<metadata>
Created by potrace 1.14, written by Peter Selinger 2001-2017
</metadata>
<g transform="translate(0.000000,512.000000) scale(0.100000,-0.100000)"
fill="#000000" stroke="none">
<path d="M2263 4689 c-124 -15 -213 -103 -231 -227 -4 -26 -7 -320 -6 -654 l1
-608 -307 0 c-338 0 -355 -3 -403 -60 -42 -49 -48 -133 -14 -183 9 -12 48 -56
87 -97 40 -41 148 -154 240 -250 92 -96 182 -191 200 -210 18 -19 110 -115
204 -214 94 -98 188 -197 210 -220 135 -144 221 -228 246 -241 36 -19 103 -19
138 -1 23 12 167 151 248 241 15 17 104 111 198 209 94 98 198 207 231 242 33
34 132 138 220 230 278 290 294 308 306 342 25 75 -20 174 -92 199 -23 8 -130
12 -340 12 l-305 1 -1 633 c0 422 -4 645 -11 670 -22 77 -95 150 -176 177 -43
14 -545 21 -643 9z"/>
<path d="M275 1266 c-132 -42 -222 -131 -259 -256 -12 -39 -15 -86 -13 -179 3
-115 6 -131 32 -186 56 -116 174 -202 298 -214 34 -3 1052 -6 2262 -5 2015 1
2205 2 2256 17 108 32 209 125 245 227 25 70 31 262 10 334 -32 110 -100 189
-206 240 l-65 31 -2260 2 c-1808 1 -2268 -1 -2300 -11z"/>
</g>
</svg>
